<?xml version="1.0" standalone="no"?>
<!DOCTYPE svg PUBLIC "-//W3C//DTD SVG 20010904//EN"
 "http://www.w3.org/TR/2001/REC-SVG-20010904/DTD/svg10.dtd">
<svg version="1.0" xmlns="http://www.w3.org/2000/svg"
 width="3508.000000pt" height="3508.000000pt" viewBox="0 0 3508.000000 3508.000000"
 preserveAspectRatio="xMidYMid meet">
<metadata>
Created by potrace 1.11, written by Peter Selinger 2001-2013
</metadata>
<g transform="translate(0.000000,3508.000000) scale(0.100000,-0.100000)"
fill="#000000" stroke="none">
<path d="M17657 26273 c-1 0 -22 -3 -47 -4 -53 -4 -104 -29 -169 -84 -359
-302 -718 -320 -1076 -54 -44 32 -105 71 -135 86 l-55 27 -450 1 c-429 0 -452
-1 -482 -19 -61 -37 -64 -56 -68 -485 -3 -212 -7 -539 -11 -726 -10 -505 -9
-526 9 -561 32 -63 50 -66 451 -70 467 -6 476 -6 511 0 120 19 166 50 309 210
33 36 64 66 69 66 5 0 21 9 36 19 69 50 216 75 336 59 67 -9 186 -48 257 -84
64 -32 164 -106 201 -149 102 -117 142 -306 141 -665 0 -128 -2 -139 -33 -220
-18 -47 -49 -118 -68 -158 -33 -68 -35 -77 -29 -142 3 -39 9 -88 12 -110 4
-22 3 -40 -2 -41 -5 0 -16 -2 -24 -3 -8 -2 -51 -7 -94 -11 -43 -4 -86 -8 -95
-10 -9 -1 -43 -6 -76 -9 -33 -4 -85 -11 -115 -16 -30 -5 -73 -11 -95 -14 -22
-3 -65 -10 -95 -16 -30 -6 -73 -13 -95 -16 -22 -2 -57 -9 -77 -15 -20 -5 -56
-12 -80 -15 -24 -4 -53 -10 -66 -15 -39 -15 -60 -10 -67 14 -30 98 -180 343
-282 458 -101 116 -294 282 -316 273 -28 -10 -27 -32 3 -51 100 -64 281 -258
384 -413 62 -92 156 -272 156 -297 0 -11 -32 -23 -60 -23 -9 0 -26 23 -39 52
-69 151 -188 317 -325 454 -119 118 -162 154 -277 229 -197 131 -398 205 -624
232 -86 10 -431 10 -540 0 -217 -20 -215 -20 -215 1 0 12 9 22 23 26 77 22
133 36 165 41 20 3 62 9 92 14 55 10 381 7 455 -3 22 -3 58 -8 80 -11 22 -3
49 -7 60 -9 11 -2 40 -7 65 -11 84 -14 120 -21 205 -40 43 -10 -84 46 -148 66
-157 47 -249 58 -472 54 -115 -1 -221 -5 -235 -8 -14 -3 -47 -8 -75 -12 -27
-3 -75 -10 -105 -15 -30 -5 -68 -12 -85 -14 -82 -14 -127 -24 -132 -30 -3 -3
0 -14 8 -23 8 -10 25 -38 38 -63 22 -41 139 -217 282 -425 227 -328 460 -679
476 -717 14 -31 65 -220 61 -223 -2 -1 -41 -19 -88 -41 -114 -52 -381 -188
-453 -230 -32 -19 -60 -34 -62 -34 -3 0 -29 -16 -59 -35 -30 -19 -59 -35 -63
-35 -4 0 -19 -9 -33 -20 -14 -11 -30 -20 -36 -20 -7 0 -31 26 -55 58 -24 31
-48 62 -54 68 -5 6 -55 75 -110 153 -55 78 -145 204 -200 280 -55 77 -107 149
-115 161 -13 19 -51 70 -77 105 -5 6 -17 23 -27 39 -10 16 -36 47 -58 68 -65
64 -118 48 -167 -50 -44 -89 -54 -144 -56 -301 -1 -200 18 -394 61 -591 3 -14
7 -36 10 -50 11 -63 88 -301 124 -386 l19 -43 -122 -99 c-67 -55 -132 -108
-143 -118 -12 -11 -47 -41 -78 -68 -203 -175 -545 -522 -707 -718 -35 -42 -67
-76 -71 -75 -7 2 -90 119 -232 327 -95 139 -118 164 -172 190 -48 24 -124 35
-124 18 0 -6 9 -51 21 -100 20 -86 26 -97 190 -343 93 -140 170 -258 171 -263
2 -5 -47 -76 -108 -158 -247 -330 -470 -690 -657 -1059 -224 -443 -402 -903
-530 -1375 -37 -137 -77 -299 -92 -370 -2 -8 -10 -49 -18 -90 -26 -124 -60
-323 -72 -410 -3 -25 -8 -56 -10 -70 -3 -23 -10 -77 -20 -160 -2 -19 -7 -64
-10 -100 -3 -36 -8 -83 -10 -105 -5 -47 -15 -192 -20 -285 -5 -86 -5 -563 -1
-665 4 -84 16 -259 21 -310 1 -16 6 -66 10 -110 4 -44 9 -89 11 -100 2 -11 6
-45 9 -76 3 -31 7 -65 9 -76 3 -11 7 -42 11 -69 3 -27 7 -56 9 -64 1 -8 6 -37
10 -65 4 -27 16 -95 27 -150 11 -55 22 -113 25 -130 3 -16 14 -70 25 -120 12
-49 22 -97 24 -105 2 -8 13 -53 25 -100 12 -47 24 -92 26 -100 50 -205 210
-683 289 -865 196 -450 300 -658 478 -960 39 -66 77 -129 84 -140 192 -292
259 -389 369 -535 335 -444 731 -864 1119 -1187 50 -42 101 -85 115 -97 220
-188 653 -485 980 -673 133 -76 407 -222 430 -228 3 -1 48 -22 100 -47 52 -25
129 -60 170 -78 41 -18 89 -38 105 -46 194 -87 803 -294 971 -329 10 -2 47
-11 82 -19 34 -9 88 -22 120 -30 70 -18 306 -66 347 -72 16 -2 41 -6 55 -9 22
-5 114 -20 180 -30 25 -3 117 -16 155 -20 144 -18 186 -23 280 -30 44 -4 96
-8 115 -10 66 -7 395 -18 540 -18 199 0 468 12 640 30 36 3 76 7 90 8 74 6
177 17 190 20 8 2 40 7 70 10 30 3 62 8 70 10 8 2 35 7 60 10 45 6 292 50 340
60 14 3 45 10 70 15 410 82 1043 288 1418 461 46 22 85 39 87 39 7 0 292 141
380 188 465 247 966 589 1345 919 14 12 36 31 50 43 257 222 613 591 840 870
25 30 47 57 51 60 44 37 472 649 552 790 14 25 64 113 112 195 93 162 254 482
330 660 26 61 57 133 70 160 56 127 249 690 270 790 2 11 13 54 25 95 20 70
66 263 76 320 3 14 7 33 10 42 5 16 9 35 19 88 3 14 7 36 10 50 21 104 59 348
70 440 3 30 8 69 10 85 12 86 19 163 30 305 24 307 24 901 0 1120 -2 19 -6 69
-10 110 -3 41 -8 86 -10 100 -2 14 -7 54 -11 90 -8 80 -11 103 -19 160 -7 53
-52 324 -60 360 -2 14 -10 50 -15 80 -25 129 -82 362 -135 550 -42 148 -172
542 -200 605 -8 17 -39 91 -69 166 -110 271 -283 622 -433 879 -60 102 -115
196 -123 210 -8 14 -17 27 -20 30 -3 3 -21 30 -40 60 -19 30 -38 57 -42 58 -5
2 -8 8 -8 14 0 10 -54 91 -77 116 -7 7 -13 17 -13 22 0 5 -6 15 -13 22 -7 7
-23 29 -37 48 -28 41 -197 268 -216 290 -7 8 -61 74 -121 145 -110 133 -116
140 -224 260 -132 146 -462 468 -603 588 -32 28 -31 32 14 132 15 33 48 110
75 170 26 61 55 128 65 150 50 111 70 156 70 160 0 2 17 41 38 87 129 278 141
320 105 361 -10 11 -85 53 -168 92 -82 40 -249 121 -370 180 -121 59 -319 156
-440 215 -527 257 -633 309 -865 422 -301 148 -325 158 -359 158 -43 0 -70
-30 -105 -120 -10 -25 -23 -58 -30 -75 -27 -62 -40 -93 -83 -200 -24 -60 -50
-123 -57 -140 -7 -16 -35 -83 -61 -148 -27 -66 -53 -116 -59 -114 -67 26 -388
133 -481 160 -213 64 -573 149 -760 182 -16 2 -56 10 -88 15 -32 6 -70 13 -85
15 -15 2 -47 6 -72 10 -25 4 -70 10 -100 14 l-55 6 -1 115 c-1 119 -9 155 -44
193 -63 67 -98 170 -94 275 9 237 15 315 28 377 8 39 17 95 21 125 4 30 8 57
10 60 2 3 6 25 9 50 3 25 8 56 11 70 12 61 27 144 30 173 7 52 33 165 44 184
18 33 66 71 103 81 51 14 285 6 388 -14 14 -2 41 -7 60 -10 19 -3 71 -15 115
-26 44 -11 87 -21 95 -23 43 -9 237 -82 339 -128 114 -51 351 -177 382 -203 8
-8 19 -14 22 -14 8 0 143 -92 242 -165 160 -118 333 -267 510 -441 67 -65 132
-125 165 -151 12 -9 20 -7 38 7 l23 19 -50 113 c-27 62 -71 154 -97 203 -26
50 -54 104 -62 120 -41 80 -250 376 -327 461 -5 7 -46 58 -89 115 -44 57 -112
145 -151 194 -39 50 -151 192 -248 317 -147 188 -231 283 -341 383 -6 6 -39
34 -73 62 -34 28 -68 57 -75 63 -29 25 -127 95 -188 135 -119 77 -127 81 -265
155 -151 80 -444 182 -586 204 -20 3 -42 8 -50 10 -21 8 -66 15 -134 22 -33 3
-71 7 -85 10 -64 10 -944 26 -953 17z m-1261 -4370 c-3 -10 -8 -38 -11 -63 -3
-25 -8 -56 -10 -70 -3 -14 -8 -56 -11 -95 -4 -38 -8 -83 -9 -100 -2 -16 -4
-49 -4 -72 -1 -41 -8 -49 -56 -59 -5 -1 -19 -5 -29 -10 -18 -7 -19 -3 -12 79
4 47 8 94 10 104 2 10 7 45 10 78 15 139 23 186 33 196 5 5 26 13 48 18 22 5
41 9 43 10 2 1 1 -7 -2 -16z m3597 -79 c-3 -8 -6 -14 -7 -12 -1 2 -7 11 -14
20 -11 14 -10 16 7 11 12 -3 17 -11 14 -19z m2705 -1721 c-13 -17 -16 -14 -28
27 l-9 33 24 -23 c19 -18 22 -26 13 -37z m-10424 -5290 c3 -10 15 -65 27 -123
94 -468 266 -963 485 -1403 95 -190 284 -518 371 -644 259 -373 442 -594 732
-884 219 -219 403 -378 642 -556 312 -232 583 -396 919 -560 176 -86 511 -229
555 -237 6 -1 15 -4 20 -8 22 -13 428 -139 495 -153 8 -2 71 -17 140 -34 119
-29 344 -72 440 -86 25 -3 52 -8 60 -10 8 -2 44 -7 80 -10 36 -4 73 -9 82 -10
9 -2 50 -6 90 -10 40 -3 89 -8 108 -10 198 -22 788 -22 955 -1 17 2 64 7 105
10 41 4 86 9 100 11 14 2 50 7 80 10 30 3 62 8 70 10 8 2 40 7 70 10 30 3 62
8 70 10 8 2 30 7 47 10 645 109 1376 378 1933 712 89 54 251 155 265 166 6 4
60 42 122 85 272 188 523 400 778 656 197 198 352 372 470 527 218 285 363
505 512 774 49 88 205 401 232 465 85 202 215 549 226 600 2 8 21 78 44 155
37 129 66 243 77 305 3 14 7 33 10 42 3 10 7 30 10 45 3 16 7 35 9 43 3 8 7
33 11 55 3 22 8 43 11 48 2 4 146 7 319 7 173 0 314 -3 314 -7 0 -45 -67 -387
-111 -573 -29 -120 -103 -389 -116 -420 -3 -8 -7 -17 -8 -20 -24 -91 -176
-491 -242 -639 -82 -183 -232 -471 -359 -689 -57 -99 -283 -434 -369 -547
-295 -390 -642 -757 -985 -1045 -36 -30 -67 -57 -70 -60 -3 -3 -25 -21 -50
-40 -25 -19 -50 -39 -57 -45 -77 -64 -203 -155 -395 -285 -110 -75 -375 -240
-384 -240 -2 0 -22 -11 -43 -24 -124 -78 -521 -268 -762 -364 -266 -106 -724
-252 -878 -278 -14 -3 -42 -9 -61 -14 -44 -11 -238 -51 -265 -55 -11 -1 -33
-5 -50 -8 -40 -9 -81 -16 -135 -23 -25 -3 -54 -8 -65 -10 -11 -2 -47 -6 -80
-9 -33 -3 -69 -8 -80 -10 -44 -8 -179 -21 -360 -32 -221 -15 -783 -7 -935 12
-14 1 -59 6 -101 9 -42 4 -87 9 -100 11 -13 2 -44 6 -68 9 -79 9 -135 17 -186
26 -27 5 -66 12 -85 14 -19 3 -46 8 -60 11 -14 2 -36 7 -50 10 -14 2 -40 7
-57 10 -276 45 -913 239 -1170 356 -23 10 -45 19 -48 19 -3 0 -40 16 -81 35
-41 19 -77 35 -80 35 -3 0 -89 42 -192 93 -334 167 -580 315 -877 526 -66 47
-122 88 -125 91 -3 3 -32 25 -65 50 -91 68 -307 251 -424 359 -494 456 -911
982 -1238 1561 -72 128 -219 418 -263 520 -18 41 -40 93 -50 115 -79 175 -254
674 -274 782 -2 10 -10 38 -17 63 -16 59 -17 62 -22 85 -3 11 -16 67 -30 125
-14 58 -28 119 -31 135 -15 87 -46 257 -50 277 -3 13 -8 40 -11 61 l-5 37 264
0 c243 0 265 -1 270 -17z"/>
</g>
</svg>
